<svg width="24" height="24" viewBox="0 0 24 24" fill="none" xmlns="http://www.w3.org/2000/svg">
<path fill-rule="evenodd" clip-rule="evenodd" d="M3.9955 3.19505C4.30199 2.91642 4.77633 2.939 5.05496 3.2455L20.055 19.7455C20.3336 20.052 20.311 20.5263 20.0045 20.805C19.698 21.0836 19.2237 21.061 18.9451 20.7545L3.94505 4.25451C3.66642 3.94801 3.68901 3.47368 3.9955 3.19505Z" fill="white"/>
<path fill-rule="evenodd" clip-rule="evenodd" d="M10.0332 8.72054C10.3118 9.02706 10.2892 9.5014 9.98267 9.78C9.5346 10.1873 9.22025 10.7206 9.08095 11.3098C8.94166 11.8991 8.98393 12.5167 9.20222 13.0815C9.4205 13.6463 9.80459 14.1318 10.304 14.4742C10.8034 14.8166 11.3947 14.9999 12.0002 15L12.0029 15C12.7477 15.0028 13.4662 14.7251 14.0153 14.222C14.3208 13.9422 14.7952 13.963 15.075 14.2684C15.3548 14.5738 15.334 15.0482 15.0286 15.328C14.2017 16.0855 13.12 16.5039 11.9986 16.5C11.0909 16.4996 10.2044 16.2247 9.45571 15.7113C8.70664 15.1977 8.13051 14.4695 7.80308 13.6223C7.47565 12.7751 7.41224 11.8487 7.62119 10.9648C7.83013 10.0809 8.30165 9.2809 8.97376 8.67C9.28028 8.3914 9.75461 8.41403 10.0332 8.72054Z" fill="white"/>
<path fill-rule="evenodd" clip-rule="evenodd" d="M7.60689 6.09322C7.79358 6.46297 7.64518 6.91406 7.27542 7.10075C5.49276 8.00082 4.21533 9.30466 3.37972 10.3958C2.96317 10.9398 2.6606 11.4255 2.46368 11.772C2.41552 11.8568 2.37377 11.933 2.33828 11.9996C2.42652 12.1649 2.55329 12.3895 2.7205 12.6551C3.09628 13.2519 3.67199 14.0489 4.46772 14.8447C6.05485 16.4318 8.49932 18 11.9999 18H12.006C13.6442 18.0134 15.2619 17.6359 16.725 16.8989C17.0949 16.7126 17.5459 16.8614 17.7322 17.2313C17.9186 17.6013 17.7697 18.0522 17.3998 18.2386C15.7246 19.0824 13.8724 19.5148 11.9968 19.5C7.99899 19.4991 5.19446 17.6927 3.40706 15.9053C2.51529 15.0136 1.87224 14.1231 1.45115 13.4543C1.24024 13.1193 1.08394 12.8382 0.97907 12.638C0.926609 12.5379 0.886936 12.4578 0.85966 12.4012C0.84602 12.3728 0.835472 12.3503 0.827969 12.3341L0.818988 12.3145L0.816196 12.3083L0.815223 12.3062L0.814842 12.3053C0.81468 12.3049 0.814531 12.3046 1.49989 12C0.814239 11.6961 0.814347 11.6958 0.814461 11.6956L0.815351 11.6936L0.817067 11.6897L0.822322 11.6781C0.826637 11.6687 0.832581 11.6558 0.840173 11.6396C0.855355 11.6073 0.877141 11.562 0.905684 11.5048C0.962752 11.3905 1.04695 11.229 1.15954 11.0309C1.38449 10.6351 1.72411 10.0907 2.18881 9.48385C3.1157 8.27346 4.55702 6.79293 6.59936 5.76175C6.96911 5.57506 7.4202 5.72346 7.60689 6.09322ZM1.49989 12L0.814461 11.6956C0.728559 11.8893 0.728444 12.1109 0.814531 12.3046L1.49989 12Z" fill="white"/>
<path fill-rule="evenodd" clip-rule="evenodd" d="M9.93538 4.66967C10.6178 4.55543 11.3086 4.49868 12.0006 4.5C12.0003 4.5 12.0008 4.5 12.0006 4.5L11.9998 5.25V4.5C12.0001 4.5 12.0003 4.5 12.0006 4.5C15.9996 4.50023 18.8049 6.30691 20.5927 8.09467C21.4844 8.98644 22.1275 9.87691 22.5486 10.5457C22.7595 10.8807 22.9158 11.1618 23.0206 11.362C23.0731 11.4621 23.1128 11.5422 23.1401 11.5988C23.1537 11.6272 23.1642 11.6497 23.1717 11.6659L23.1807 11.6855L23.1835 11.6917L23.1845 11.6938L23.1849 11.6947C23.185 11.6951 23.1852 11.6954 22.4998 12C21.8145 11.6954 21.8145 11.6952 21.8146 11.6951L21.8089 11.7074C21.8036 11.7189 21.7948 11.7377 21.7824 11.7632C21.7577 11.8141 21.7188 11.892 21.6653 11.9924C21.6639 11.995 21.6626 11.9975 21.6612 12C21.573 11.8347 21.4463 11.6103 21.2792 11.3449C20.9034 10.7481 20.3277 9.95106 19.532 9.15533C17.9449 7.5682 15.5004 6 11.9998 6H11.9983C11.3901 5.9988 10.7829 6.04867 10.183 6.14908C9.77449 6.21747 9.38788 5.94173 9.31949 5.5332C9.25111 5.12467 9.52685 4.73805 9.93538 4.66967ZM22.4998 12L23.1852 12.3046C23.2714 12.1107 23.2714 11.8893 23.1852 11.6954L22.4998 12ZM21.6612 12C21.5541 12.2007 21.3903 12.4885 21.1666 12.8306C20.7126 13.525 20.0176 14.434 19.0561 15.2941C18.7473 15.5703 18.7209 16.0444 18.9971 16.3531C19.2732 16.6619 19.7474 16.6883 20.0561 16.4121C21.1383 15.4441 21.9152 14.4266 22.4221 13.6515C22.676 13.2631 22.8637 12.9333 22.9893 12.6975C23.0521 12.5795 23.0995 12.4849 23.1319 12.418C23.1482 12.3845 23.1607 12.358 23.1695 12.3389L23.1801 12.316L23.1833 12.3088L23.1844 12.3063L23.1848 12.3054C23.1849 12.3052 23.1852 12.3046 22.4998 12C21.8145 12.3046 21.8146 12.3049 21.8147 12.3051L21.8102 12.2954C21.8059 12.2861 21.7987 12.2707 21.7886 12.2496C21.7682 12.2073 21.7361 12.1424 21.6919 12.058C21.6823 12.0396 21.672 12.0202 21.6612 12Z" fill="white"/>
<path fill-rule="evenodd" clip-rule="evenodd" d="M11.9664 8.176C12.0435 7.76903 12.4359 7.50162 12.8429 7.57873C13.8003 7.76013 14.6727 8.24801 15.3284 8.96874C15.9842 9.68947 16.3877 10.6039 16.4782 11.5742C16.5166 11.9866 16.2134 12.3521 15.801 12.3905C15.3886 12.4289 15.0231 12.1258 14.9846 11.7133C14.9244 11.0672 14.6557 10.4582 14.2189 9.97822C13.7822 9.49823 13.2012 9.17332 12.5636 9.05251C12.1567 8.9754 11.8893 8.58298 11.9664 8.176Z" fill="white"/>
</svg>
